<svg width="24" height="24" viewBox="0 0 24 24" fill="none" xmlns="http://www.w3.org/2000/svg">
<path d="M12.9865 15.3892C12.5272 15.3892 12.1548 15.7616 12.1548 16.2209V19.1575L6.50373 14.6841C6.24475 14.4798 5.9246 14.3684 5.59471 14.3679H2.88913V9.6274H5.59457C6.05391 9.6274 6.42626 9.25505 6.42626 8.79572C6.42626 8.33638 6.05391 7.96403 5.59457 7.96403H2.69042C1.88184 7.96497 1.2266 8.6202 1.22567 9.42878V14.5666C1.2266 15.3752 1.88184 16.0304 2.69042 16.0314H5.52545L11.7656 20.9709C12.3141 21.405 13.1108 21.3122 13.5449 20.7636C13.722 20.5399 13.8183 20.2629 13.8183 19.9776V16.221C13.8183 15.7616 13.4459 15.3893 12.9866 15.3893L12.9865 15.3892ZM23.7518 22.5756L20.1993 19.0231C23.8432 14.7335 23.5846 8.36516 19.6047 4.38515C19.2785 4.06182 18.7519 4.06416 18.4285 4.39039C18.1072 4.71461 18.1072 5.23717 18.4286 5.56134C21.7786 8.91138 21.9775 14.255 19.0179 17.8415L17.0655 15.8891C18.9938 13.3412 18.7474 9.76144 16.4882 7.50174C16.1619 7.17841 15.6353 7.18076 15.312 7.50704C14.9907 7.83121 14.9907 8.35377 15.312 8.67799C16.9415 10.3075 17.1296 12.8542 15.8728 14.6963L13.8184 12.6419V4.01767C13.8185 3.31814 13.2515 2.75097 12.5519 2.75088C12.2665 2.75083 11.9895 2.84719 11.7657 3.02434L7.54308 6.36683L1.41979 0.243587C1.095 -0.0811956 0.568369 -0.0811956 0.243587 0.243587C-0.0811956 0.568369 -0.0811956 1.095 0.243587 1.41979L12.3982 13.5745L12.3985 13.5747L22.5756 23.7518C22.8979 24.0791 23.4245 24.0833 23.7518 23.761C24.0791 23.4388 24.0832 22.9122 23.761 22.5849L23.7518 22.5756ZM12.1548 4.83787V10.9786L8.72724 7.55105L12.1548 4.83787Z" fill="black"/>
</svg>
