<svg width="16" height="16" viewBox="0 0 16 16" fill="none" xmlns="http://www.w3.org/2000/svg">
<path d="M8.65769 10.2595C8.35147 10.2595 8.10323 10.5077 8.10323 10.8139V12.7716L4.33582 9.7894C4.16317 9.65317 3.94974 9.57892 3.72981 9.5786H1.92609V6.41826H3.72972C4.03594 6.41826 4.28417 6.17003 4.28417 5.8638C4.28417 5.55758 4.03594 5.30935 3.72972 5.30935H1.79361C1.25456 5.30997 0.817736 5.7468 0.817111 6.28585V9.71107C0.817736 10.2501 1.25456 10.6869 1.79361 10.6876H3.68363L7.84372 13.9806C8.20943 14.27 8.74052 14.2081 9.02993 13.8424C9.14798 13.6933 9.2122 13.5086 9.21218 13.3184V10.814C9.21218 10.5077 8.96394 10.2595 8.65772 10.2595L8.65769 10.2595ZM15.8345 15.0504L13.4662 12.6821C15.8955 9.8223 15.723 5.57677 13.0698 2.92343C12.8523 2.70787 12.5012 2.70944 12.2857 2.92693C12.0715 3.14307 12.0715 3.49144 12.2857 3.70756C14.5191 5.94092 14.6516 9.50333 12.6786 11.8943L11.377 10.5927C12.6625 8.89413 12.4983 6.50762 10.9921 5.00116C10.7746 4.7856 10.4235 4.78717 10.208 5.00469C9.99381 5.2208 9.99381 5.56917 10.208 5.78532C11.2943 6.87164 11.4197 8.56945 10.5819 9.79752L9.21227 8.42791V2.67844C9.21233 2.21209 8.83431 1.83398 8.36796 1.83392C8.17768 1.83388 7.99297 1.89813 7.84378 2.01623L5.02872 4.24455L0.946524 0.162391C0.730002 -0.0541303 0.378913 -0.0541303 0.162391 0.162391C-0.0541304 0.378912 -0.0541304 0.730002 0.162391 0.946523L8.26548 9.04964L8.26567 9.04982L15.0504 15.8345C15.2652 16.0527 15.6163 16.0555 15.8345 15.8407C16.0527 15.6258 16.0555 15.2748 15.8406 15.0566L15.8345 15.0504ZM8.1032 3.22524V7.31906L5.81816 5.03403L8.1032 3.22524Z" fill="black"/>
</svg>
