<svg width="22" height="22" viewBox="0 0 22 22" fill="none" xmlns="http://www.w3.org/2000/svg">
<path d="M5.50016 2.29199C4.89237 2.29199 4.30948 2.53343 3.87971 2.96321C3.44994 3.39298 3.2085 3.97587 3.2085 4.58366V17.417C3.2085 18.0248 3.44994 18.6077 3.87971 19.0374C4.30948 19.4672 4.89237 19.7087 5.50016 19.7087H7.3335C7.94128 19.7087 8.52418 19.4672 8.95395 19.0374C9.38372 18.6077 9.62516 18.0248 9.62516 17.417V4.58366C9.62516 3.97587 9.38372 3.39298 8.95395 2.96321C8.52418 2.53343 7.94128 2.29199 7.3335 2.29199H5.50016ZM8.7085 4.58366V17.417C8.7085 17.7817 8.56363 18.1314 8.30577 18.3893C8.04791 18.6471 7.69817 18.792 7.3335 18.792H5.50016C5.13549 18.792 4.78575 18.6471 4.52789 18.3893C4.27003 18.1314 4.12516 17.7817 4.12516 17.417V4.58366C4.12516 4.21899 4.27003 3.86925 4.52789 3.61139C4.78575 3.35352 5.13549 3.20866 5.50016 3.20866H7.3335C7.69817 3.20866 8.04791 3.35352 8.30577 3.61139C8.56363 3.86925 8.7085 4.21899 8.7085 4.58366ZM14.6668 19.7087H16.5002C16.8011 19.7087 17.0991 19.6494 17.3771 19.5342C17.6552 19.419 17.9078 19.2502 18.1206 19.0374C18.3334 18.8246 18.5022 18.572 18.6174 18.294C18.7326 18.0159 18.7918 17.7179 18.7918 17.417V4.58366C18.7918 4.28271 18.7326 3.98471 18.6174 3.70668C18.5022 3.42864 18.3334 3.17601 18.1206 2.96321C17.9078 2.7504 17.6552 2.5816 17.3771 2.46643C17.0991 2.35127 16.8011 2.29199 16.5002 2.29199H14.6668C14.059 2.29199 13.4761 2.53343 13.0464 2.96321C12.6166 3.39298 12.3752 3.97587 12.3752 4.58366V17.417C12.3752 18.0248 12.6166 18.6077 13.0464 19.0374C13.4761 19.4672 14.059 19.7087 14.6668 19.7087ZM13.2918 4.58366C13.2918 4.21899 13.4367 3.86925 13.6946 3.61139C13.9524 3.35352 14.3022 3.20866 14.6668 3.20866H16.5002C16.8648 3.20866 17.2146 3.35352 17.4724 3.61139C17.7303 3.86925 17.8752 4.21899 17.8752 4.58366V17.417C17.8752 17.7817 17.7303 18.1314 17.4724 18.3893C17.2146 18.6471 16.8648 18.792 16.5002 18.792H14.6668C14.3022 18.792 13.9524 18.6471 13.6946 18.3893C13.4367 18.1314 13.2918 17.7817 13.2918 17.417V4.58366Z" fill="black"/>
</svg>
