<svg xmlns="http://www.w3.org/2000/svg" version="1.1" xmlns:xlink="http://www.w3.org/1999/xlink" width="32" height="32" x="0" y="0" viewBox="0 0 480 480" style="enable-background:new 0 0 512 512" xml:space="preserve" class=""><g><path d="M278.944 17.577c-5.568-2.656-12.128-1.952-16.928 1.92L106.368 144.009H32c-17.632 0-32 14.368-32 32v128c0 17.632 14.368 32 32 32h74.368l155.616 124.512A16.158 16.158 0 0 0 272 464.009c2.368 0 4.736-.512 6.944-1.568A16.05 16.05 0 0 0 288 448.009v-416a16.05 16.05 0 0 0-9.056-14.432zM96 304.009H32v-128h64v128zm160 110.688-128-102.4V167.721l128-102.4v349.376zM369.024 126.857c-6.304-6.24-16.416-6.144-22.624.128-6.208 6.304-6.144 16.416.128 22.624 24.16 23.904 37.472 56 37.472 90.4 0 34.4-13.312 66.496-37.472 90.4-6.304 6.208-6.368 16.32-.128 22.624a15.943 15.943 0 0 0 11.36 4.736c4.064 0 8.128-1.536 11.264-4.64 30.304-29.92 46.976-70.08 46.976-113.12 0-43.04-16.672-83.2-46.976-113.152z" fill="#000000" opacity="1" data-original="#000000"></path><path d="M414.144 81.769c-6.272-6.208-16.416-6.176-22.624.096-6.208 6.272-6.176 16.416.096 22.624C427.968 140.553 448 188.681 448 240.009s-20.032 99.456-56.384 135.52c-6.272 6.208-6.304 16.352-.096 22.624a15.89 15.89 0 0 0 11.36 4.736c4.064 0 8.128-1.536 11.264-4.64C456.608 356.137 480 299.945 480 240.009c0-59.936-23.392-116.128-65.856-158.24z" fill="#000000" opacity="1" data-original="#000000"></path></g></svg>